<svg width="24" height="24" viewBox="0 0 24 24" fill="none" xmlns="http://www.w3.org/2000/svg">
<path d="M11.1776 7.209C11.2621 5.59094 12.0012 3.92549 14.1413 2.95895L15.4538 4.27151C14.6169 4.4878 13.1863 5.41776 12.4252 7.52967C13.5613 6.53537 14.9357 6.02928 16.3346 6.22516C19.4081 6.65558 21.4367 10.3119 20.8654 14.3917C20.2941 18.4715 17.3392 21.4299 14.2655 20.9995C13.4205 20.8812 12.6547 20.519 12.0001 19.9714C11.3456 20.519 10.5795 20.8812 9.73451 20.9995C6.66077 21.4299 3.70594 18.4715 3.13465 14.3917C2.56336 10.3119 4.59193 6.65558 7.66541 6.22516C8.90487 6.0516 10.1252 6.42911 11.1776 7.209Z" fill="white"/>
</svg>
