<svg width="30" height="30" viewBox="0 0 30 30" fill="none" xmlns="http://www.w3.org/2000/svg">
<g id="icon / calender">
<path id="Icon" d="M23.75 27.5H6.25C4.86929 27.5 3.75 26.3807 3.75 25V7.5C3.75 6.11929 4.86929 5 6.25 5H8.75V2.5H11.25V5H18.75V2.5H21.25V5H23.75C25.1307 5 26.25 6.11929 26.25 7.5V25C26.25 26.3807 25.1307 27.5 23.75 27.5ZM6.25 12.5V25H23.75V12.5H6.25ZM6.25 7.5V10H23.75V7.5H6.25ZM21.25 22.5H18.75V20H21.25V22.5ZM16.25 22.5H13.75V20H16.25V22.5ZM11.25 22.5H8.75V20H11.25V22.5ZM21.25 17.5H18.75V15H21.25V17.5ZM16.25 17.5H13.75V15H16.25V17.5ZM11.25 17.5H8.75V15H11.25V17.5Z" fill="#FFC500"/>
</g>
</svg>
