<svg width="15" height="15" viewBox="0 0 15 15" fill="none" xmlns="http://www.w3.org/2000/svg">
<g id="Icon">
<path id="Vector" d="M14.7 7.67599C14.7 7.17999 14.652 6.66799 14.572 6.18799H7.64404V9.01999H11.612C11.452 9.93199 10.924 10.732 10.14 11.244L12.508 13.084C13.9 11.788 14.7 9.89999 14.7 7.67599Z" fill="#4280EF"/>
<path id="Vector_2" d="M7.64398 14.8441C9.62798 14.8441 11.292 14.1881 12.508 13.0681L10.14 11.2441C9.48398 11.6921 8.63598 11.9481 7.64398 11.9481C5.72398 11.9481 4.10798 10.6521 3.51598 8.92407L1.08398 10.7961C2.33198 13.2761 4.85998 14.8441 7.64398 14.8441Z" fill="#34A353"/>
<path id="Vector_3" d="M3.51595 8.9081C3.21195 7.9961 3.21195 7.0041 3.51595 6.0921L1.08396 4.2041C0.0439551 6.2841 0.0439551 8.7321 1.08396 10.7961L3.51595 8.9081Z" fill="#F6B704"/>
<path id="Vector_4" d="M7.64398 3.06804C8.68398 3.05204 9.70798 3.45204 10.46 4.17204L12.556 2.06004C11.228 0.812041 9.46798 0.140041 7.64398 0.156041C4.85998 0.156041 2.33198 1.72404 1.08398 4.20404L3.51598 6.09204C4.10798 4.34804 5.72398 3.06804 7.64398 3.06804Z" fill="#E54335"/>
</g>
</svg>
