<?xml version="1.0" standalone="no"?>
<!DOCTYPE svg PUBLIC "-//W3C//DTD SVG 20010904//EN"
 "http://www.w3.org/TR/2001/REC-SVG-20010904/DTD/svg10.dtd">
<svg version="1.0" xmlns="http://www.w3.org/2000/svg"
 width="50.000000pt" height="50.000000pt" viewBox="0 0 50.000000 50.000000"
 preserveAspectRatio="xMidYMid meet">

<g transform="translate(0.000000,50.000000) scale(0.100000,-0.100000)"
fill="#000000" stroke="none">
<path d="M165 436 c-38 -17 -90 -72 -104 -109 -15 -40 -14 -122 3 -160 17 -39
71 -92 109 -106 66 -25 174 -7 207 35 11 13 6 12 -20 -6 -26 -19 -50 -25 -100
-28 -77 -4 -118 14 -164 72 -26 31 -31 47 -34 104 -4 79 14 119 72 166 30 25
48 31 101 34 45 3 73 0 96 -12 18 -9 34 -14 37 -11 3 3 -11 12 -31 20 -45 18
-132 19 -172 1z"/>
<path d="M390 430 c0 -13 -10 -22 -32 -29 l-33 -9 38 -1 c35 -1 37 1 37 29 0
17 -2 30 -5 30 -3 0 -5 -9 -5 -20z"/>
<path d="M230 376 c0 -7 -9 -16 -19 -19 -10 -2 -27 -16 -36 -30 -29 -45 2 -97
58 -97 39 0 62 -14 52 -30 -5 -8 -23 -11 -51 -7 -54 6 -81 -16 -49 -39 10 -8
25 -14 32 -14 7 0 13 -7 13 -15 0 -8 9 -15 20 -15 11 0 20 6 20 14 0 7 9 16
19 19 10 2 27 16 36 30 29 45 -2 97 -58 97 -39 0 -62 14 -52 30 5 8 23 11 51
7 54 -6 81 16 49 39 -10 8 -25 14 -32 14 -7 0 -13 7 -13 15 0 8 -9 15 -20 15
-11 0 -20 -6 -20 -14z"/>
<path d="M423 336 c7 -14 13 -23 15 -21 7 6 -9 45 -18 45 -4 0 -3 -11 3 -24z"/>
<path d="M442 250 c0 -19 2 -27 5 -17 2 9 2 25 0 35 -3 9 -5 1 -5 -18z"/>
<path d="M423 164 c-6 -13 -7 -24 -3 -24 9 0 25 39 18 45 -2 2 -8 -7 -15 -21z"/>
</g>
</svg>
