<svg width="24" height="25" viewBox="0 0 24 25" fill="none" xmlns="http://www.w3.org/2000/svg">
<g id="icon / lock">
<g id="Icon">
<path d="M8.37866 17.5107C9.0697 17.5107 9.62997 16.9505 9.62997 16.2594C9.62997 15.5684 9.0697 15.0081 8.37866 15.0081C7.68763 15.0081 7.12735 15.5684 7.12735 16.2594C7.12735 16.9505 7.68763 17.5107 8.37866 17.5107Z" fill="#B9B9B9"/>
<path d="M13.2516 16.2594C13.2516 16.9505 12.6913 17.5107 12.0003 17.5107C11.3092 17.5107 10.749 16.9505 10.749 16.2594C10.749 15.5684 11.3092 15.0081 12.0003 15.0081C12.6913 15.0081 13.2516 15.5684 13.2516 16.2594Z" fill="#B9B9B9"/>
<path d="M15.6219 17.5107C16.3129 17.5107 16.8732 16.9505 16.8732 16.2594C16.8732 15.5684 16.3129 15.0081 15.6219 15.0081C14.9308 15.0081 14.3706 15.5684 14.3706 16.2594C14.3706 16.9505 14.9308 17.5107 15.6219 17.5107Z" fill="#B9B9B9"/>
<path fill-rule="evenodd" clip-rule="evenodd" d="M6.66868 8.71014C6.66868 5.76564 9.05557 3.37866 12 3.37866C14.9447 3.37866 17.3316 5.76564 17.3316 8.71013V11.3597L20.0103 11.3597L20.0103 21.6213L3.98999 21.6213L3.98999 11.3597H6.66868L6.66868 8.71014ZM15.4942 8.71013V11.3597L8.50606 11.3597L8.50606 8.71014C8.50606 6.7804 10.0705 5.21604 12 5.21604C13.9298 5.21604 15.4942 6.7804 15.4942 8.71013ZM5.82737 13.197L18.1729 13.197L18.1729 19.784L5.82737 19.784L5.82737 13.197Z" fill="#B9B9B9"/>
</g>
</g>
</svg>
