<?xml version="1.0" standalone="no"?>
<!DOCTYPE svg PUBLIC "-//W3C//DTD SVG 20010904//EN"
 "http://www.w3.org/TR/2001/REC-SVG-20010904/DTD/svg10.dtd">
<svg version="1.0" xmlns="http://www.w3.org/2000/svg"
 width="50.000000pt" height="50.000000pt" viewBox="0 0 50.000000 50.000000"
 preserveAspectRatio="xMidYMid meet">

<g transform="translate(0.000000,50.000000) scale(0.100000,-0.100000)"
fill="#000000" stroke="none">
<path d="M100 452 c-56 -28 -70 -68 -70 -202 0 -192 28 -220 220 -220 192 0
220 28 220 220 0 134 -14 174 -70 202 -50 26 -250 26 -300 0z m290 -17 c49
-25 60 -60 60 -185 0 -179 -21 -200 -202 -200 -95 0 -118 3 -146 20 -46 28
-54 58 -50 196 3 129 12 154 63 175 37 15 243 10 275 -6z"/>
<path d="M90 250 c0 -33 4 -60 10 -60 6 0 10 9 10 20 0 27 14 25 35 -6 9 -14
19 -23 22 -21 2 3 -3 17 -13 31 -16 25 -16 28 1 46 24 27 7 25 -22 -2 l-23
-21 0 36 c0 20 -4 37 -10 37 -6 0 -10 -27 -10 -60z"/>
<path d="M393 245 c0 -38 2 -53 4 -32 2 20 2 52 0 70 -2 17 -4 1 -4 -38z"/>
<path d="M190 260 c-15 -29 -5 -67 21 -75 20 -7 49 9 49 27 0 6 -7 5 -15 -2
-21 -17 -45 -5 -45 24 0 28 17 37 44 24 14 -8 17 -7 14 4 -8 23 -55 22 -68 -2z"/>
<path d="M297 273 c-14 -13 -7 -25 8 -13 8 6 19 9 25 5 16 -10 12 -25 -9 -25
-10 0 -24 -7 -31 -15 -19 -22 4 -43 44 -42 33 1 34 2 29 36 -2 20 -6 42 -9 49
-4 13 -46 17 -57 5z m43 -58 c0 -8 -9 -15 -20 -15 -20 0 -26 11 -13 23 12 13
33 7 33 -8z"/>
</g>
</svg>
