<svg width="24" height="25" viewBox="0 0 24 25" fill="none" xmlns="http://www.w3.org/2000/svg">
<g id="icon / user">
<g id="Icon">
<path fill-rule="evenodd" clip-rule="evenodd" d="M12 3.5C9.23858 3.5 7 5.73858 7 8.5C7 11.2614 9.23858 13.5 12 13.5C14.7614 13.5 17 11.2614 17 8.5C17 5.73858 14.7614 3.5 12 3.5ZM15 8.5C15 10.1569 13.6569 11.5 12 11.5C10.3431 11.5 9 10.1569 9 8.5C9 6.84315 10.3431 5.5 12 5.5C13.6569 5.5 15 6.84315 15 8.5Z" fill="#B9B9B9"/>
<path fill-rule="evenodd" clip-rule="evenodd" d="M4.06272 21.5C4.28353 19.747 5.08052 18.1058 6.34315 16.8431C7.84344 15.3429 9.87827 14.5 12 14.5C14.1217 14.5 16.1566 15.3429 17.6569 16.8431C18.9195 18.1058 19.7165 19.747 19.9373 21.5L20 23.5H4L4.06272 21.5ZM6.08389 21.5H17.9161C17.7098 20.2797 17.1293 19.144 16.2426 18.2574C15.1174 17.1321 13.5913 16.5 12 16.5C10.4087 16.5 8.88258 17.1321 7.75736 18.2574C6.87067 19.144 6.29016 20.2797 6.08389 21.5Z" fill="#B9B9B9"/>
</g>
</g>
</svg>
