<svg width="190" height="116" viewBox="0 0 190 116" fill="none" xmlns="http://www.w3.org/2000/svg">
<g id="logo">
<path id="Logo" fill-rule="evenodd" clip-rule="evenodd" d="M63.2706 69.595C64.8839 69.2618 66.5656 68.9164 68.2492 68.5751C76.6552 66.8767 92.3515 63.5202 92.3515 63.5202L58.7696 105.098L79.4304 72.7172C76.6331 73.5371 73.2719 74.5125 69.9047 75.4718C61.6632 77.8185 53.3977 80.0541 53.3977 80.0541L41.48 82.9501L49.3061 73.4503C49.3061 73.4503 52.2679 69.6434 56.6244 64.3179C58.8358 61.6158 61.4144 58.53 64.1215 55.3359C67.9101 50.8683 71.9475 46.1918 75.5736 42.033C77.7549 39.532 79.7856 37.2215 81.5214 35.2567L59.779 38.2733L55.6412 39.0401L78.3027 7.9314L63.1061 33.8145L97.6612 26.1767L92.0826 32.9483C92.0826 32.9483 87.4311 39.1112 81.387 46.8825C77.9977 51.2395 74.181 56.1003 70.5208 60.6747C67.9542 63.8797 65.4679 66.9433 63.2706 69.595ZM55.0291 43.4984C55.0291 43.4984 56.5883 43.0955 58.7516 42.5827C60.4332 42.1845 62.4418 41.7159 64.3502 41.3054C65.4659 41.065 66.5355 40.8504 67.4706 40.6739C69.3087 40.3275 70.603 40.1264 70.603 40.1264L73.7696 39.6902L71.6806 42.1249C71.6806 42.1249 70.8699 43.1215 69.5816 44.5415C68.6666 45.5506 67.5067 46.7599 66.2786 48.031C65.1709 49.1769 64.0071 50.3504 62.8994 51.4553C60.1081 54.2364 57.7402 56.5145 57.7402 56.5145C57.7402 56.5145 59.6345 53.8243 61.9623 50.6413C62.8853 49.3766 63.8706 48.0474 64.8358 46.7773C65.9054 45.3685 66.9248 44.0372 67.7837 42.9785C67.8198 42.9331 67.8579 42.8879 67.894 42.8432C67.8518 42.8471 67.8097 42.8507 67.7676 42.8544C66.8184 42.9376 65.7328 43.0198 64.593 43.0902C62.6445 43.2106 60.5836 43.3027 58.8599 43.3734C56.6385 43.4645 55.0291 43.4984 55.0291 43.4984ZM58.0492 83.9518C58.0492 83.9518 59.0626 83.5338 60.4733 82.9845C61.5709 82.5563 62.8813 82.0514 64.1294 81.595C64.8599 81.3284 65.5623 81.0821 66.1763 80.8761C67.3823 80.4681 68.2371 80.2117 68.2371 80.2117L70.3321 79.6179L69.1502 81.4577C69.1502 81.4577 68.6947 82.2049 67.9582 83.2854C67.4345 84.0508 66.7662 84.9757 66.0559 85.9492C65.4137 86.8256 64.7395 87.7263 64.0953 88.5766C62.4719 90.7132 61.0873 92.4722 61.0873 92.4722C61.0873 92.4722 62.1147 90.481 63.387 88.1161C63.8927 87.175 64.4325 86.1854 64.9663 85.2383C65.5562 84.1881 66.1201 83.1945 66.5997 82.4008C66.6218 82.3665 66.6418 82.3322 66.6619 82.2978C66.6338 82.3039 66.6057 82.312 66.5776 82.318C65.9475 82.4634 65.2211 82.621 64.4586 82.7765C63.1582 83.041 61.7756 83.2975 60.6197 83.5055C59.1308 83.7761 58.0492 83.9518 58.0492 83.9518ZM83.9977 23.9499C83.9977 23.9499 82.9321 24.3589 81.4532 24.8936C80.3034 25.3091 78.9288 25.8004 77.6204 26.2429C76.8558 26.5018 76.1214 26.7389 75.4793 26.9384C74.2151 27.33 73.3221 27.5758 73.3221 27.5758L71.1308 28.1378L72.405 26.2582C72.405 26.2582 72.8947 25.4926 73.6873 24.391C74.2492 23.608 74.9696 22.6645 75.7301 21.6721C76.4184 20.7774 77.1428 19.859 77.8331 18.9932C79.5729 16.8139 81.0539 15.022 81.0539 15.022C81.0539 15.022 79.9381 17.0653 78.5555 19.4898C78.0077 20.4529 77.4218 21.4665 76.8458 22.4367C76.2057 23.5131 75.5937 24.5309 75.0759 25.344C75.0539 25.3789 75.0318 25.4137 75.0097 25.448C75.0378 25.4419 75.0679 25.4361 75.096 25.43C75.7562 25.2951 76.5127 25.1497 77.3094 25.0084C78.6679 24.7664 80.1087 24.5356 81.3147 24.3468C82.8679 24.1036 83.9977 23.9499 83.9977 23.9499Z" fill="#242424"/>
<path id="Text" fill-rule="evenodd" clip-rule="evenodd" d="M37.514 40.079L30.551 50.5194L28.7469 39.8521L22.0997 50.5194L19.664 40.079H14.167L19.2186 61.1867L27.2753 49.2143L29.4234 61.1583L43.1801 40.079H37.514ZM118.059 40.2969H108.994L105.517 60.8929H106.452L108.294 50.1825L116.07 50.212L116.245 49.3H108.439L109.813 41.2384H117.882L118.059 40.2969ZM122.648 40.1792C122.18 40.1792 121.946 40.3951 121.946 40.8264C121.946 41.0227 122.014 41.1893 122.15 41.3267C122.287 41.464 122.453 41.5327 122.648 41.5327C122.863 41.5327 123.033 41.464 123.16 41.3267C123.286 41.1893 123.348 41.0227 123.348 40.8264C123.348 40.3951 123.115 40.1792 122.648 40.1792ZM122.004 47.358H121.099L118.789 60.8929H119.666L122.004 47.358ZM126.974 47.358H124.897L124.723 48.2407H126.828L124.665 60.8929H125.542L127.705 48.2407H129.898L130.045 47.358H127.851L128.67 42.6507H127.763L126.974 47.358ZM140.216 49.9178C140.335 50.5063 140.345 51.1436 140.247 51.8301L138.667 60.8929H139.544L141.123 51.7418C141.24 50.918 141.222 50.1482 141.065 49.4323C140.909 48.7163 140.578 48.1426 140.072 47.7112C139.564 47.2796 138.844 47.064 137.907 47.064C136.777 47.064 135.778 47.3923 134.911 48.0495C134.044 48.7066 133.406 49.5353 132.996 50.5355L133.522 47.358H132.617L130.277 60.8929H131.184L132.703 52.4185C132.84 51.6144 133.143 50.869 133.61 50.1825C134.078 49.4961 134.668 48.9468 135.378 48.535C136.091 48.123 136.855 47.9269 137.674 47.9465C138.453 47.9465 139.043 48.1278 139.442 48.4908C139.841 48.8537 140.1 49.3293 140.216 49.9178ZM146.678 60.4203C147.459 60.9313 148.354 61.1857 149.367 61.1857C150.653 61.1857 151.819 60.8868 152.861 60.2891C153.904 59.6913 154.815 58.8431 155.594 57.7445L154.893 57.2436C153.471 59.2833 151.657 60.3032 149.455 60.3032C148.111 60.3032 147.053 59.8084 146.283 58.8168C145.514 57.8273 145.129 56.557 145.129 55.0076C145.129 54.7919 145.139 54.5762 145.157 54.3603H156.266C156.364 54.1446 156.443 53.8896 156.501 53.5953C156.559 53.3013 156.589 53.0266 156.589 52.7716C156.589 51.6731 156.378 50.6975 155.959 49.8442C155.542 48.991 154.952 48.3143 154.191 47.8142C153.43 47.314 152.554 47.064 151.56 47.064C150.567 47.064 149.626 47.2893 148.739 47.7405C147.852 48.1917 147.067 48.7949 146.385 49.55C145.703 50.3051 145.167 51.1584 144.778 52.1096C144.388 53.061 144.194 54.0465 144.194 55.0666C144.194 56.3021 144.412 57.3769 144.85 58.2877C145.289 59.2005 145.899 59.9114 146.678 60.4203ZM148.725 48.6673C149.582 48.1476 150.507 47.8877 151.502 47.8877C152.339 47.8877 153.071 48.0937 153.693 48.5055C154.317 48.9175 154.801 49.4813 155.14 50.1973C155.483 50.9132 155.654 51.7125 155.654 52.595C155.654 52.7716 155.638 52.9384 155.61 53.0953C155.58 53.2522 155.546 53.3992 155.507 53.5366H145.275C145.508 52.5363 145.927 51.6047 146.532 50.7415C147.136 49.8786 147.866 49.1871 148.725 48.6673ZM159.804 58.5826C159.551 58.0635 159.374 57.5183 159.278 56.9488L158.517 57.3022C158.596 57.9303 158.79 58.5442 159.103 59.142C159.414 59.7398 159.868 60.2305 160.462 60.6122C161.056 60.9959 161.812 61.1857 162.727 61.1857C163.936 61.1857 164.955 60.8182 165.782 60.0831C166.61 59.348 167.074 58.421 167.17 57.3022C167.23 56.5772 167.108 55.9786 166.805 55.5078C166.504 55.0371 166.095 54.6449 165.579 54.331C165.061 54.0172 164.491 53.7425 163.867 53.5071C163.321 53.311 162.82 53.0904 162.362 52.8453C161.905 52.5999 161.554 52.2863 161.311 51.9038C161.066 51.5213 160.984 51.0162 161.062 50.3885C161.158 49.6235 161.513 49.0253 162.127 48.5938C162.742 48.1622 163.448 47.9465 164.249 47.9465C165.164 47.9465 165.86 48.1769 166.337 48.638C166.815 49.0988 167.17 49.6726 167.405 50.359L168.135 49.9472C167.883 49.1822 167.453 48.5202 166.849 47.9612C166.245 47.4022 165.398 47.1227 164.307 47.1227C163.643 47.1227 163.01 47.2552 162.406 47.52C161.802 47.7847 161.295 48.1622 160.885 48.6527C160.476 49.1431 160.233 49.751 160.155 50.4768C160.077 51.2418 160.185 51.8595 160.476 52.3303C160.769 52.801 161.172 53.1835 161.69 53.4778C162.206 53.772 162.766 54.0269 163.372 54.2428C163.897 54.4389 164.393 54.6693 164.863 54.9341C165.33 55.1988 165.699 55.5274 165.972 55.9198C166.245 56.312 166.352 56.7933 166.293 57.3607C166.217 58.2433 165.842 58.9643 165.17 59.5237C164.495 60.0831 163.703 60.3618 162.786 60.3618C162.007 60.3618 161.377 60.1962 160.901 59.8629C160.424 59.5297 160.057 59.1016 159.804 58.5826ZM171.236 58.5826C170.981 58.0635 170.806 57.5183 170.708 56.9488L169.948 57.3022C170.026 57.9303 170.22 58.5442 170.534 59.142C170.845 59.7398 171.298 60.2305 171.892 60.6122C172.488 60.9959 173.243 61.1857 174.158 61.1857C175.366 61.1857 176.385 60.8182 177.214 60.0831C178.04 59.348 178.504 58.421 178.602 57.3022C178.661 56.5772 178.538 55.9786 178.237 55.5078C177.934 55.0371 177.525 54.6449 177.009 54.331C176.491 54.0172 175.921 53.7425 175.299 53.5071C174.752 53.311 174.25 53.0904 173.792 52.8453C173.335 52.5999 172.984 52.2863 172.741 51.9038C172.496 51.5213 172.414 51.0162 172.492 50.3885C172.59 49.6235 172.946 49.0253 173.56 48.5938C174.174 48.1622 174.88 47.9465 175.679 47.9465C176.594 47.9465 177.292 48.1769 177.77 48.638C178.245 49.0988 178.602 49.6726 178.835 50.359L179.568 49.9472C179.313 49.1822 178.885 48.5202 178.279 47.9612C177.675 47.4022 176.828 47.1227 175.737 47.1227C175.075 47.1227 174.441 47.2552 173.837 47.52C173.232 47.7847 172.725 48.1622 172.317 48.6527C171.908 49.1431 171.663 49.751 171.585 50.4768C171.507 51.2418 171.615 51.8595 171.908 52.3303C172.199 52.801 172.604 53.1835 173.12 53.4778C173.638 53.772 174.198 54.0269 174.802 54.2428C175.327 54.4389 175.825 54.6693 176.293 54.9341C176.76 55.1988 177.129 55.5274 177.402 55.9198C177.675 56.312 177.784 56.7933 177.725 57.3607C177.647 58.2433 177.272 58.9643 176.6 59.5237C175.927 60.0831 175.133 60.3618 174.216 60.3618C173.437 60.3618 172.809 60.1962 172.331 59.8629C171.854 59.5297 171.489 59.1016 171.236 58.5826ZM49.9069 61.0164L48.8018 57.1864H42.7184L40.2942 61.0164H34.8478L48.6102 40.0223L55.0939 61.0164H49.9069ZM47.2007 48.4767L44.2689 53.5266H48.4411L47.2007 48.4767ZM94.3766 57.1864L95.4816 61.0164H100.669L94.185 40.0223L80.4226 61.0164H85.869L88.2932 57.1864H94.3766ZM89.8436 53.5266L92.7755 48.4767L94.0158 53.5266H89.8436Z" fill="#242424"/>
</g>
</svg>
