<svg width="24" height="24" viewBox="0 0 24 24" fill="none" xmlns="http://www.w3.org/2000/svg">
<path d="M8.73886 3.90814C6.29344 5.09629 6.16815 5.16974 5.98236 5.56722C5.86571 5.81781 3.09193 16.537 3.11786 16.6364C3.15674 16.7747 7.23531 19.5182 7.9266 19.8725C8.84255 20.3391 9.85787 20.702 10.6615 20.8403C11.2664 20.9483 12.9816 20.944 13.5778 20.836C14.2216 20.7193 14.7703 20.5681 15.2801 20.3693C15.8072 20.162 15.7079 20.1533 16.6454 20.5249C17.3583 20.8014 18.2181 21.039 18.9137 21.1384C19.4667 21.2162 20.4777 21.2032 20.8061 21.1125L20.9875 21.0606V16.8956V12.7307L20.7197 12.5319C19.4581 11.603 18.1144 11.4691 16.775 12.1344C16.5849 12.2295 16.3041 12.3893 16.1486 12.493C15.8375 12.7004 15.198 13.2362 15.198 13.288C15.198 13.3096 15.2888 13.4565 15.4011 13.6207C15.6258 13.9577 15.8893 14.5021 15.993 14.8391C16.0708 15.1156 16.0233 15.297 15.8418 15.3878C15.5523 15.539 15.3449 15.418 15.198 15.0119C14.8222 13.9706 14.1654 13.2275 13.3186 12.8732C12.8736 12.6874 12.4761 12.6313 11.7503 12.6529C10.9769 12.6788 10.6053 12.7695 10.0998 13.0633C9.55112 13.383 8.88575 14.191 8.69565 14.7656C8.61788 14.9903 8.42346 15.1933 8.28088 15.1933C8.03029 15.1933 7.81426 14.9255 7.87043 14.6878C7.88771 14.6187 7.98709 14.3897 8.0951 14.1694L8.2852 13.7719V10.6352V7.50282L8.16855 7.53306C7.74514 7.64972 7.41678 7.29975 7.62848 6.96275C7.70193 6.8461 7.78402 6.80721 8.35433 6.63007C8.70861 6.51774 9.15795 6.38812 9.35669 6.33628C9.70233 6.24555 9.7153 6.24555 9.86219 6.32332C9.9486 6.36652 10.2078 6.5523 10.4411 6.73377L10.8646 7.06213L11.8237 6.10297L12.7872 5.13949L11.949 3.98159C11.4867 3.34216 11.0892 2.81505 11.0676 2.81073C11.046 2.80209 10.0004 3.29895 8.73886 3.90814Z" fill="white"/>
</svg>
