<svg width="25" height="24" viewBox="0 0 25 24" fill="none" xmlns="http://www.w3.org/2000/svg">
<g id="icon / fire">
<path id="Icon" fill-rule="evenodd" clip-rule="evenodd" d="M21.2413 14.6877C21.0425 19.3214 17.2305 23.0221 12.5634 23.0221C7.76934 23.0221 3.87744 19.1169 3.87744 14.3072C3.87744 11.675 5.04309 9.31376 6.88435 7.71507C6.88435 7.71507 6.44389 9.6958 6.52076 11.1448C6.62089 13.0433 7.71068 15.2214 8.79794 14.3072C10.0571 13.2493 8.49149 11.5355 8.34635 9.65673C8.12081 6.7308 9.56256 4.32898 10.8278 3.1103C11.6784 2.29041 12.8557 1.42436 14.3389 0.97789C14.3389 0.97789 12.9366 4.90381 15.367 7.09762C17.7479 9.24628 21.2367 10.8693 21.2413 14.6877Z" fill="white"/>
</g>
</svg>
