<svg width="100" height="57" viewBox="0 0 100 57" fill="none" xmlns="http://www.w3.org/2000/svg">
<g id="icon">
<path id="Subtract" fill-rule="evenodd" clip-rule="evenodd" d="M48.6836 56.495C64.2842 56.495 76.9309 43.8481 76.9309 28.2475C76.9309 12.6469 64.2842 0 48.6836 0C33.0828 0 20.436 12.6469 20.436 28.2475C20.436 43.8481 33.0828 56.495 48.6836 56.495ZM68.8308 28.2475C68.8308 39.3743 59.8105 48.3944 48.6838 48.3944C37.5569 48.3944 28.5369 39.3743 28.5369 28.2475C28.5369 17.1207 37.5569 8.10059 48.6838 8.10059C59.8105 8.10059 68.8308 17.1207 68.8308 28.2475ZM69.8308 28.2475C69.8308 39.9266 60.3628 49.3944 48.6838 49.3944C37.0046 49.3944 27.5369 39.9266 27.5369 28.2475C27.5369 16.5684 37.0046 7.10059 48.6838 7.10059C60.3628 7.10059 69.8308 16.5684 69.8308 28.2475Z" fill="#FFC500"/>
<path id="Union" fill-rule="evenodd" clip-rule="evenodd" d="M91.4116 18.0331C93.1709 16.8555 94.3967 14.2139 94.3967 11.1439C94.3967 6.97772 92.1392 3.60034 89.3545 3.60034C86.5696 3.60034 84.312 6.97772 84.312 11.1439C84.312 14.2138 85.5378 16.8553 87.2971 18.033V52.8947H91.4116V18.0331Z" fill="#FFC500"/>
<path id="Union_2" fill-rule="evenodd" clip-rule="evenodd" d="M7.27173 3.60034H5.60303V18.6874H7.27173V52.8947H11.3862V18.6874H13.0549V3.60034H11.3862V16.9264H10.1633V3.60034H8.49463V16.9264H7.27173V3.60034Z" fill="#FFC500"/>
</g>
</svg>
