<svg width="190" height="115" viewBox="0 0 190 115" fill="none" xmlns="http://www.w3.org/2000/svg">
<g id="logo">
<path id="Logo" fill-rule="evenodd" clip-rule="evenodd" d="M63.2706 69.095C64.8839 68.7618 66.5656 68.4164 68.2492 68.0751C76.6552 66.3767 92.3515 63.0202 92.3515 63.0202L58.7696 104.598L79.4304 72.2172C76.6331 73.0371 73.2719 74.0126 69.9047 74.9718C61.6632 77.3185 53.3977 79.5542 53.3977 79.5542L41.48 82.4502L49.3061 72.9503C49.3061 72.9503 52.2679 69.1435 56.6244 63.818C58.8358 61.1158 61.4144 58.03 64.1215 54.8359C67.9101 50.3683 71.9475 45.6919 75.5736 41.533C77.7549 39.0321 79.7856 36.7215 81.5214 34.7567L59.779 37.7733L55.6412 38.5401L78.3027 7.43143L63.1061 33.3146L97.6612 25.6767L92.0826 32.4484C92.0826 32.4484 87.4311 38.6112 81.387 46.3825C77.9977 50.7395 74.181 55.6003 70.5208 60.1747C67.9542 63.3797 65.4679 66.4434 63.2706 69.095ZM55.0291 42.9984C55.0291 42.9984 56.5883 42.5955 58.7516 42.0828C60.4332 41.6845 62.4418 41.216 64.3502 40.8054C65.4659 40.5651 66.5355 40.3504 67.4706 40.1739C69.3087 39.8275 70.603 39.6264 70.603 39.6264L73.7696 39.1902L71.6806 41.6249C71.6806 41.6249 70.8699 42.6216 69.5816 44.0415C68.6666 45.0507 67.5067 46.26 66.2786 47.531C65.1709 48.6769 64.0071 49.8505 62.8994 50.9554C60.1081 53.7365 57.7402 56.0145 57.7402 56.0145C57.7402 56.0145 59.6345 53.3243 61.9623 50.1413C62.8853 48.8767 63.8706 47.5474 64.8358 46.2773C65.9054 44.8685 66.9248 43.5372 67.7837 42.4786C67.8198 42.4331 67.8579 42.3879 67.894 42.3433C67.8518 42.3471 67.8097 42.3507 67.7676 42.3544C66.8184 42.4376 65.7328 42.5198 64.593 42.5903C62.6445 42.7106 60.5836 42.8027 58.8599 42.8734C56.6385 42.9645 55.0291 42.9984 55.0291 42.9984ZM58.0492 83.4519C58.0492 83.4519 59.0626 83.0338 60.4733 82.4845C61.5709 82.0564 62.8813 81.5515 64.1294 81.0951C64.8599 80.8285 65.5623 80.5821 66.1763 80.3761C67.3823 79.9682 68.2371 79.7117 68.2371 79.7117L70.3321 79.118L69.1502 80.9577C69.1502 80.9577 68.6947 81.705 67.9582 82.7854C67.4345 83.5508 66.7662 84.4758 66.0559 85.4492C65.4137 86.3257 64.7395 87.2264 64.0953 88.0766C62.4719 90.2133 61.0873 91.9723 61.0873 91.9723C61.0873 91.9723 62.1147 89.981 63.387 87.6161C63.8927 86.675 64.4325 85.6855 64.9663 84.7383C65.5562 83.6881 66.1201 82.6945 66.5997 81.9009C66.6218 81.8665 66.6418 81.8322 66.6619 81.7979C66.6338 81.8039 66.6057 81.812 66.5776 81.8181C65.9475 81.9635 65.2211 82.121 64.4586 82.2765C63.1582 82.5411 61.7756 82.7975 60.6197 83.0056C59.1308 83.2762 58.0492 83.4519 58.0492 83.4519ZM83.9977 23.45C83.9977 23.45 82.9321 23.8589 81.4532 24.3937C80.3034 24.8091 78.9288 25.3004 77.6204 25.7429C76.8558 26.0018 76.1214 26.2389 75.4793 26.4384C74.2151 26.83 73.3221 27.0758 73.3221 27.0758L71.1308 27.6379L72.405 25.7583C72.405 25.7583 72.8947 24.9927 73.6873 23.891C74.2492 23.108 74.9696 22.1645 75.7301 21.1721C76.4184 20.2775 77.1428 19.359 77.8331 18.4932C79.5729 16.3139 81.0539 14.522 81.0539 14.522C81.0539 14.522 79.9381 16.5654 78.5555 18.9898C78.0077 19.9529 77.4218 20.9665 76.8458 21.9367C76.2057 23.0131 75.5937 24.031 75.0759 24.844C75.0539 24.879 75.0318 24.9137 75.0097 24.948C75.0378 24.942 75.0679 24.9361 75.096 24.9301C75.7562 24.7952 76.5127 24.6497 77.3094 24.5084C78.6679 24.2664 80.1087 24.0356 81.3147 23.8468C82.8679 23.6036 83.9977 23.45 83.9977 23.45Z" fill="#FFC500"/>
<path id="Text" fill-rule="evenodd" clip-rule="evenodd" d="M37.514 39.5789L30.551 50.0193L28.7469 39.352L22.0997 50.0193L19.664 39.5789H14.167L19.2186 60.6866L27.2753 48.7142L29.4234 60.6582L43.1801 39.5789H37.514ZM118.059 39.7968H108.994L105.517 60.3928H106.452L108.294 49.6824L116.07 49.7119L116.245 48.7999H108.439L109.813 40.7383H117.882L118.059 39.7968ZM122.648 39.6791C122.18 39.6791 121.946 39.895 121.946 40.3263C121.946 40.5226 122.014 40.6892 122.15 40.8266C122.287 40.9639 122.453 41.0326 122.648 41.0326C122.863 41.0326 123.033 40.9639 123.16 40.8266C123.286 40.6892 123.348 40.5226 123.348 40.3263C123.348 39.895 123.115 39.6791 122.648 39.6791ZM122.004 46.8579H121.099L118.789 60.3928H119.666L122.004 46.8579ZM126.974 46.8579H124.897L124.723 47.7406H126.828L124.665 60.3928H125.542L127.705 47.7406H129.898L130.045 46.8579H127.851L128.67 42.1506H127.763L126.974 46.8579ZM140.216 49.4177C140.335 50.0062 140.345 50.6435 140.247 51.33L138.667 60.3928H139.544L141.123 51.2417C141.24 50.4179 141.222 49.6481 141.065 48.9322C140.909 48.2163 140.578 47.6425 140.072 47.2111C139.564 46.7796 138.844 46.5639 137.907 46.5639C136.777 46.5639 135.778 46.8922 134.911 47.5494C134.044 48.2066 133.406 49.0352 132.996 50.0354L133.522 46.8579H132.617L130.277 60.3928H131.184L132.703 51.9185C132.84 51.1143 133.143 50.3689 133.61 49.6824C134.078 48.996 134.668 48.4467 135.378 48.0349C136.091 47.6229 136.855 47.4268 137.674 47.4464C138.453 47.4464 139.043 47.6278 139.442 47.9907C139.841 48.3536 140.1 48.8292 140.216 49.4177ZM146.678 59.9202C147.459 60.4312 148.354 60.6856 149.367 60.6856C150.653 60.6856 151.819 60.3868 152.861 59.789C153.904 59.1912 154.815 58.343 155.594 57.2444L154.893 56.7435C153.471 58.7832 151.657 59.8031 149.455 59.8031C148.111 59.8031 147.053 59.3083 146.283 58.3167C145.514 57.3272 145.129 56.0569 145.129 54.5075C145.129 54.2918 145.139 54.0761 145.157 53.8602H156.266C156.364 53.6445 156.443 53.3895 156.501 53.0952C156.559 52.8012 156.589 52.5265 156.589 52.2715C156.589 51.173 156.378 50.1974 155.959 49.3442C155.542 48.4909 154.952 47.8142 154.191 47.3141C153.43 46.8139 152.554 46.5639 151.56 46.5639C150.567 46.5639 149.626 46.7892 148.739 47.2404C147.852 47.6916 147.067 48.2948 146.385 49.0499C145.703 49.805 145.167 50.6583 144.778 51.6095C144.388 52.5609 144.194 53.5464 144.194 54.5665C144.194 55.802 144.412 56.8768 144.85 57.7876C145.289 58.7005 145.899 59.4113 146.678 59.9202ZM148.725 48.1672C149.582 47.6475 150.507 47.3876 151.502 47.3876C152.339 47.3876 153.071 47.5936 153.693 48.0054C154.317 48.4174 154.801 48.9812 155.14 49.6972C155.483 50.4131 155.654 51.2124 155.654 52.095C155.654 52.2715 155.638 52.4383 155.61 52.5952C155.58 52.7521 155.546 52.8991 155.507 53.0365H145.275C145.508 52.0362 145.927 51.1046 146.532 50.2414C147.136 49.3785 147.866 48.687 148.725 48.1672ZM159.804 58.0825C159.551 57.5634 159.374 57.0182 159.278 56.4487L158.517 56.8021C158.596 57.4302 158.79 58.0441 159.103 58.6419C159.414 59.2397 159.868 59.7304 160.462 60.1121C161.056 60.4958 161.812 60.6856 162.727 60.6856C163.936 60.6856 164.955 60.3181 165.782 59.583C166.61 58.8479 167.074 57.9209 167.17 56.8021C167.23 56.0771 167.108 55.4785 166.805 55.0077C166.504 54.537 166.095 54.1448 165.579 53.8309C165.061 53.5171 164.491 53.2425 163.867 53.007C163.321 52.8109 162.82 52.5904 162.362 52.3452C161.905 52.0998 161.554 51.7862 161.311 51.4037C161.066 51.0212 160.984 50.5161 161.062 49.8884C161.158 49.1234 161.513 48.5252 162.127 48.0937C162.742 47.6621 163.448 47.4464 164.249 47.4464C165.164 47.4464 165.86 47.6768 166.337 48.1379C166.815 48.5987 167.17 49.1725 167.405 49.8589L168.135 49.4472C167.883 48.6822 167.453 48.0201 166.849 47.4611C166.245 46.9021 165.398 46.6226 164.307 46.6226C163.643 46.6226 163.01 46.7551 162.406 47.0199C161.802 47.2846 161.295 47.6621 160.885 48.1526C160.476 48.643 160.233 49.2509 160.155 49.9767C160.077 50.7417 160.185 51.3594 160.476 51.8302C160.769 52.301 161.172 52.6835 161.69 52.9777C162.206 53.2719 162.766 53.5268 163.372 53.7427C163.897 53.9388 164.393 54.1692 164.863 54.434C165.33 54.6987 165.699 55.0273 165.972 55.4197C166.245 55.8119 166.352 56.2932 166.293 56.8607C166.217 57.7432 165.842 58.4642 165.17 59.0236C164.495 59.583 163.703 59.8617 162.786 59.8617C162.007 59.8617 161.377 59.6961 160.901 59.3629C160.424 59.0296 160.057 58.6015 159.804 58.0825ZM171.236 58.0825C170.981 57.5634 170.806 57.0182 170.708 56.4487L169.948 56.8021C170.026 57.4302 170.22 58.0441 170.534 58.6419C170.845 59.2397 171.298 59.7304 171.892 60.1121C172.488 60.4958 173.243 60.6856 174.158 60.6856C175.366 60.6856 176.385 60.3181 177.214 59.583C178.04 58.8479 178.504 57.9209 178.602 56.8021C178.661 56.0771 178.538 55.4785 178.237 55.0077C177.934 54.537 177.525 54.1448 177.009 53.8309C176.491 53.5171 175.921 53.2425 175.299 53.007C174.752 52.8109 174.25 52.5904 173.792 52.3452C173.335 52.0998 172.984 51.7862 172.741 51.4037C172.496 51.0212 172.414 50.5161 172.492 49.8884C172.59 49.1234 172.946 48.5252 173.56 48.0937C174.174 47.6621 174.88 47.4464 175.679 47.4464C176.594 47.4464 177.292 47.6768 177.77 48.1379C178.245 48.5987 178.602 49.1725 178.835 49.8589L179.568 49.4472C179.313 48.6822 178.885 48.0201 178.279 47.4611C177.675 46.9021 176.828 46.6226 175.737 46.6226C175.075 46.6226 174.441 46.7551 173.837 47.0199C173.232 47.2846 172.725 47.6621 172.317 48.1526C171.908 48.643 171.663 49.2509 171.585 49.9767C171.507 50.7417 171.615 51.3594 171.908 51.8302C172.199 52.301 172.604 52.6835 173.12 52.9777C173.638 53.2719 174.198 53.5268 174.802 53.7427C175.327 53.9388 175.825 54.1692 176.293 54.434C176.76 54.6987 177.129 55.0273 177.402 55.4197C177.675 55.8119 177.784 56.2932 177.725 56.8607C177.647 57.7432 177.272 58.4642 176.6 59.0236C175.927 59.583 175.133 59.8617 174.216 59.8617C173.437 59.8617 172.809 59.6961 172.331 59.3629C171.854 59.0296 171.489 58.6015 171.236 58.0825ZM49.9069 60.5163L48.8018 56.6863H42.7184L40.2942 60.5163H34.8478L48.6102 39.5222L55.0939 60.5163H49.9069ZM47.2007 47.9766L44.2689 53.0266H48.4411L47.2007 47.9766ZM94.3766 56.6863L95.4816 60.5163H100.669L94.185 39.5222L80.4226 60.5163H85.869L88.2932 56.6863H94.3766ZM89.8436 53.0266L92.7755 47.9766L94.0158 53.0266H89.8436Z" fill="white"/>
</g>
</svg>
