<svg width="135" height="118" viewBox="0 0 135 118" fill="none" xmlns="http://www.w3.org/2000/svg">
<path fill-rule="evenodd" clip-rule="evenodd" d="M73.0002 71.5304C74.5576 71.2112 76.1809 70.8804 77.8061 70.5534C85.9204 68.9264 94.0405 67.4076 94.0405 67.4076L101.072 65.7109L68.6554 105.542L88.5993 74.5214C85.8991 75.3069 82.6545 76.2413 79.4041 77.1603C71.4487 79.4084 63.4699 81.55 63.4699 81.55L51.9658 84.3243L59.5203 75.2237C59.5203 75.2237 62.3794 71.5769 66.5847 66.4752C68.7194 63.8866 71.2085 60.9304 73.8216 57.8706C77.4787 53.5907 81.3761 49.1108 84.8763 45.1268C86.9819 42.7309 88.9422 40.5174 90.6178 38.6352L69.6298 41.525L65.6356 42.2596L87.5107 12.4583L72.8414 37.2536L97.8991 31.4634L106.197 29.9368L100.812 36.4239C100.812 36.4239 96.3223 42.3277 90.4879 49.7725C87.2163 53.9463 83.532 58.6028 79.9988 62.985C77.5213 66.0553 75.1213 68.9902 73.0002 71.5304ZM65.0448 46.5305C65.0448 46.5305 66.5499 46.1446 68.638 45.6534C70.2613 45.2718 72.2003 44.823 74.0424 44.4297C75.1194 44.1995 76.1518 43.9938 77.0545 43.8247C78.8289 43.4929 80.0782 43.3002 80.0782 43.3002L83.1349 42.8823L81.1184 45.2148C81.1184 45.2148 80.3359 46.1695 79.0923 47.5298C78.209 48.4965 77.0894 49.655 75.9039 50.8727C74.8347 51.9704 73.7112 53.0946 72.6419 54.1531C69.9475 56.8173 67.6618 58.9996 67.6618 58.9996C67.6618 58.9996 69.4903 56.4225 71.7373 53.3732C72.6284 52.1618 73.5794 50.8884 74.5111 49.6716C75.5436 48.322 76.5276 47.0467 77.3567 46.0325C77.3916 45.989 77.4283 45.9457 77.4632 45.9029C77.4225 45.9066 77.3819 45.9101 77.3412 45.9136C76.425 45.9933 75.377 46.072 74.2768 46.1395C72.3959 46.2548 70.4065 46.3431 68.7426 46.4108C66.5983 46.498 65.0448 46.5305 65.0448 46.5305ZM67.9601 85.2839C67.9601 85.2839 68.9382 84.8834 70.3 84.3572C71.3596 83.9471 72.6244 83.4634 73.8293 83.0262C74.5344 82.7708 75.2124 82.5348 75.8051 82.3374C76.9693 81.9466 77.7944 81.7009 77.7944 81.7009L79.8168 81.1321L78.6758 82.8946C78.6758 82.8946 78.2361 83.6105 77.5252 84.6455C77.0196 85.3787 76.3746 86.2648 75.6889 87.1973C75.069 88.0369 74.4182 88.8998 73.7964 89.7143C72.2293 91.7612 70.8927 93.4463 70.8927 93.4463C70.8927 93.4463 71.8845 91.5387 73.1126 89.2732C73.6007 88.3716 74.1218 87.4237 74.6371 86.5163C75.2066 85.5103 75.7509 84.5584 76.2138 83.7981C76.2351 83.7652 76.2545 83.7323 76.2739 83.6994C76.2468 83.7053 76.2197 83.713 76.1925 83.7188C75.5843 83.8581 74.8831 84.009 74.147 84.158C72.8918 84.4114 71.5571 84.6571 70.4414 84.8564C69.0041 85.1156 67.9601 85.2839 67.9601 85.2839ZM93.008 27.8036C93.008 27.8036 91.9795 28.1954 90.5519 28.7077C89.4419 29.1056 88.115 29.5763 86.8521 30.0002C86.1141 30.2482 85.4051 30.4754 84.7853 30.6665C83.5649 31.0416 82.7029 31.2771 82.7029 31.2771L80.5877 31.8155L81.8177 30.0149C81.8177 30.0149 82.2904 29.2815 83.0555 28.2261C83.5979 27.4761 84.2933 26.5722 85.0274 25.6215C85.6918 24.7644 86.3911 23.8846 87.0574 23.0552C88.7369 20.9675 90.1664 19.2508 90.1664 19.2508C90.1664 19.2508 89.0894 21.2083 87.7548 23.5309C87.226 24.4535 86.6603 25.4245 86.1044 26.3539C85.4865 27.3851 84.8957 28.3602 84.3959 29.1391C84.3746 29.1726 84.3533 29.2058 84.332 29.2387C84.3591 29.2329 84.3882 29.2273 84.4153 29.2215C85.0526 29.0923 85.7829 28.953 86.5519 28.8175C87.8633 28.5858 89.2541 28.3646 90.4182 28.1838C91.9175 27.9508 93.008 27.8036 93.008 27.8036Z" fill="#FFC500"/>
<path fill-rule="evenodd" clip-rule="evenodd" d="M41.4161 53.2564L48.1374 43.2548H53.6069L40.3276 63.4482L38.254 52.0061L30.4769 63.4754L25.6006 43.2548H30.9069L33.258 53.2564L39.6746 43.0374L41.4161 53.2564ZM60.0998 63.3123L59.0331 59.6432H53.1608L50.8207 63.3123H45.5633L58.8481 43.2005L65.1068 63.3123H60.0998ZM57.4876 51.2996L54.6574 56.1373H58.6848L57.4876 51.2996ZM103.027 59.6432L104.094 63.3123H109.101L102.842 43.2005L89.557 63.3123H94.8144L97.1545 59.6432H103.027ZM98.6512 56.1373L101.481 51.2996L102.679 56.1373H98.6512Z" fill="white"/>
</svg>
