<svg width="31" height="30" viewBox="0 0 31 30" fill="none" xmlns="http://www.w3.org/2000/svg">
<path d="M15.5 27.5C14.1201 27.4932 13.0011 26.3799 12.9875 25H17.9875C17.9901 25.3342 17.9264 25.6656 17.8 25.975C17.4721 26.7275 16.8023 27.2764 16 27.45H15.9938H15.975H15.9525H15.9412C15.796 27.4802 15.6483 27.497 15.5 27.5ZM25.5 23.75H5.5V21.25L8 20V13.125C7.93415 11.3614 8.33242 9.61141 9.155 8.05C9.9738 6.60189 11.3734 5.5736 13 5.225V2.5H18V5.225C21.2237 5.9925 23 8.7975 23 13.125V20L25.5 21.25V23.75Z" fill="#FFC500"/>
</svg>
