<svg width="31" height="30" viewBox="0 0 31 30" fill="none" xmlns="http://www.w3.org/2000/svg">
<path d="M17.7 14.7625C17.7 16.1156 16.6031 17.2125 15.25 17.2125C13.8969 17.2125 12.8 16.1156 12.8 14.7625C12.8 13.4094 13.8969 12.3125 15.25 12.3125C16.6031 12.3125 17.7 13.4094 17.7 14.7625Z" fill="#FFC500"/>
<path fill-rule="evenodd" clip-rule="evenodd" d="M24.5331 10.9135C24.7711 11.4936 25.3354 11.8732 25.9625 11.875C26.3736 11.875 26.7678 12.0383 27.0585 12.329C27.3492 12.6197 27.5125 13.0139 27.5125 13.425V16.1C27.5125 16.956 26.8185 17.65 25.9625 17.65C25.3354 17.6518 24.7711 18.0314 24.5331 18.6115C24.295 19.1917 24.4299 19.8582 24.875 20.3C25.472 20.9118 25.472 21.8882 24.875 22.5L23 24.375C22.3882 24.972 21.4118 24.972 20.8 24.375C20.3582 23.9299 19.6917 23.795 19.1115 24.0331C18.5314 24.2711 18.1518 24.8354 18.15 25.4625C18.15 26.3185 17.456 27.0125 16.6 27.0125H13.925C13.069 27.0125 12.375 26.3185 12.375 25.4625C12.3732 24.8354 11.9936 24.2711 11.4135 24.0331C10.8333 23.795 10.1668 23.9299 9.725 24.375C9.11319 24.972 8.13681 24.972 7.525 24.375L5.65 22.5C5.05296 21.8882 5.05296 20.9118 5.65 20.3C6.09668 19.8566 6.23087 19.1871 5.98957 18.6057C5.74827 18.0244 5.1794 17.6467 4.55 17.65C3.69396 17.65 3 16.956 3 16.1V13.425C3 12.569 3.69396 11.875 4.55 11.875C5.17712 11.8732 5.74135 11.4936 5.97944 10.9135C6.21753 10.3333 6.08256 9.66682 5.6375 9.225C5.04046 8.61319 5.04046 7.63681 5.6375 7.025L7.5125 5.15C8.12431 4.55296 9.10069 4.55296 9.7125 5.15C10.1559 5.59668 10.8254 5.73087 11.4068 5.48957C11.9881 5.24827 12.3657 4.6794 12.3625 4.05C12.3625 3.19396 13.0565 2.5 13.9125 2.5H16.6C17.0111 2.5 17.4053 2.6633 17.696 2.95398C17.9867 3.24467 18.15 3.63891 18.15 4.05C18.1467 4.6794 18.5244 5.24827 19.1057 5.48957C19.6871 5.73087 20.3566 5.59668 20.8 5.15C21.4118 4.55296 22.3882 4.55296 23 5.15L24.875 7.025C25.472 7.63681 25.472 8.61319 24.875 9.225C24.4299 9.66682 24.295 10.3333 24.5331 10.9135ZM10.925 14.7625C10.925 17.1511 12.8614 19.0875 15.25 19.0875C17.6386 19.0875 19.575 17.1511 19.575 14.7625C19.575 12.3739 17.6386 10.4375 15.25 10.4375C12.8614 10.4375 10.925 12.3739 10.925 14.7625Z" fill="#FFC500"/>
</svg>
